<svg xmlns="http://www.w3.org/2000/svg" viewBox="0 0 520 520" role="img" aria-labelledby="title desc">
  <title id="title">SARE — Sistema de Avaliação Riachense de Educação</title>
  <desc id="desc">Marca do SARE com livro aberto, símbolos de conhecimento e nome institucional.</desc>
  <g fill="none" stroke="#0A55B8" stroke-width="9" stroke-linecap="round" stroke-linejoin="round">
    <path d="M74 246c58-12 116 4 186 51 70-47 128-63 186-51l-30-55c-50-3-98 11-156 48-58-37-106-51-156-48z"/>
    <path d="M75 263c58-10 114 7 185 55 71-48 127-65 185-55"/>
    <path d="M232 111h56M260 83v56"/>
    <circle cx="171" cy="137" r="16"/>
    <circle cx="349" cy="139" r="16"/>
    <path d="M160 91l18 18M178 91l-18 18M333 94l26 26M359 94l-26 26"/>
    <path d="M216 153c10-18 25-29 44-29s34 11 44 29c-10 18-25 29-44 29s-34-11-44-29z"/>
    <circle cx="260" cy="153" r="9" fill="#0A55B8" stroke="none"/>
    <path d="M120 157l20-10 20 10-20 10zM140 167v20"/>
    <path d="M384 157l-20-10-20 10 20 10zM364 167v20"/>
    <path d="M201 88c-7 11-7 22 0 33M319 88c7 11 7 22 0 33"/>
  </g>
  <text x="260" y="407" text-anchor="middle" font-family="Arial, Helvetica, sans-serif" font-size="112" font-weight="800" letter-spacing="8" fill="#0A55B8">SARE</text>
  <text x="260" y="450" text-anchor="middle" font-family="Arial, Helvetica, sans-serif" font-size="23" font-weight="800" letter-spacing="1.6" fill="#FF3138">SISTEMA DE AVALIAÇÃO</text>
  <text x="260" y="481" text-anchor="middle" font-family="Arial, Helvetica, sans-serif" font-size="23" font-weight="800" letter-spacing="1.3" fill="#FF3138">RIACHENSE DE EDUCAÇÃO</text>
</svg>